/* XPM */	 
static char * bfr_xpm[] = {
"32 32 14 1",
" 	c #000000",
".	c #999999",
"+	c #CC6666",
"@	c #111111",
"#	c #CC9999",
"$	c #BBBBBB",
"%	c #EEEEEE",
"&	c #DDDDDD",
"*	c #CCCCCC",
"=	c #222222",
"-	c #333333",
";	c #555555",
">	c #444444",
",	c #777777",
" .............................. ",
".                              .",
".   ++++++++++++++++++++++++   .",
". @@+++++++++#++++++++++++++   .",
". $%$##+++++#&#####$##*#####++ .",
". +$+++$+++++%++++++++*+++++#+ .",
". +##++#++++$*+++++++#*######+ .",
". +##+#####+#####++++#*$##++++ .",
". ++#+++++##*+++++++++#####+++ .",
". ++**#####+*+++++++++$#++##$# .",
". ++++++++++ =--     +++++++++ .",
". +++++++++  &&&%$$$  ++++++++ .",
". ++++++++  &&&&%%&$$  +++++++ .",
". ++++++++ &&&&&%&&&$$ +++++++ .",
". ++++++++ & &&&&&&&&  +++++++ .",
". +++++++;; &  &&&&  $+;++++++ .",
". ++++++;$$ &&  &&  &$ $;+++++ .",
". +++++++  &&$$ && &$$  ++++++ .",
". +++++++ &&&&& && $&$$ ++++++ .",
". ++++++ &&&&&& && $&&$$ +++++ .",
". ++++++ +&&&&& && $&&$$ +++++ .",
". +++++++ &&&&&    $&$$  +++++ .",
". +++++++  &&&&&$$$$$$  ++++++ .",
". ++++++++  &&&&$$$$$>>+++++++ .",
". +++++++++ &&&&&&&&$ ++++++++ .",
". ++++      &&     &$ ;    +++ .",
". +   ;>>>  & &&&&& *- ===-    .",
".   >>>>>>>  &&&&&$$  =======- .",
". ->>>>>>>>>  &$$$$  ==>>>>===  ",
"  >>>>>>>>>>>  $$$  ==>>>,>>==  ",
"                               @",
" ==============@@@@@==========@ "};
